<?xml version="1.0" standalone="no"?>
<!DOCTYPE svg PUBLIC "-//W3C//DTD SVG 20010904//EN"
 "http://www.w3.org/TR/2001/REC-SVG-20010904/DTD/svg10.dtd">
<svg version="1.0" xmlns="http://www.w3.org/2000/svg"
 width="260.000000pt" height="260.000000pt" viewBox="0 0 260.000000 260.000000"
 preserveAspectRatio="xMidYMid meet">
<metadata>
Created by potrace 1.11, written by Peter Selinger 2001-2013
</metadata>
<g transform="translate(0.000000,260.000000) scale(0.100000,-0.100000)"
fill="#000000" stroke="none">
<path d="M1877 2074 c-4 -4 -32 -8 -64 -9 -31 -2 -59 -8 -61 -14 -2 -6 -7 -9
-12 -6 -8 5 -25 0 -97 -31 -17 -8 -36 -14 -43 -14 -6 0 -8 -4 -5 -10 3 -5 1
-10 -4 -10 -6 0 -13 0 -15 -1 -11 -1 -81 -75 -78 -81 2 -5 -4 -8 -12 -8 -9 0
-16 -5 -16 -11 0 -7 -8 -18 -17 -26 -10 -8 -12 -11 -4 -7 8 4 1 -10 -15 -31
-16 -22 -22 -36 -14 -31 8 4 6 0 -4 -8 -11 -9 -16 -16 -12 -16 5 0 4 -6 -1
-12 -5 -7 -8 -23 -7 -35 0 -12 -3 -20 -8 -17 -4 3 -5 10 -2 16 4 7 2 8 -5 4
-6 -4 -9 -16 -6 -26 3 -10 1 -21 -5 -25 -14 -9 -13 -27 3 -20 6 4 5 1 -4 -7
-9 -7 -15 -23 -14 -35 1 -13 -3 -23 -9 -23 -6 0 -4 -5 4 -10 12 -8 12 -10 1
-10 -11 0 -11 -3 0 -17 10 -11 10 -14 2 -9 -16 9 -15 18 -17 -146 -1 -90 2
-138 9 -138 5 0 3 -5 -5 -10 -11 -7 -11 -10 -2 -10 7 0 12 -8 10 -17 -1 -10 1
-24 6 -32 7 -10 5 -12 -3 -6 -10 5 -11 3 -4 -11 5 -11 9 -26 8 -34 0 -8 4 -18
9 -22 5 -3 10 -22 11 -41 0 -19 6 -42 14 -51 7 -9 10 -16 7 -16 -4 0 0 -7 9
-16 9 -9 14 -23 11 -30 -3 -8 1 -14 9 -14 8 0 14 -3 13 -7 -3 -16 15 -43 25
-36 6 4 7 1 2 -6 -4 -8 10 -29 39 -58 25 -24 46 -49 46 -54 0 -6 4 -8 8 -5 5
3 20 -6 34 -19 14 -13 28 -21 32 -18 3 3 16 -1 30 -10 13 -9 37 -18 52 -20 16
-3 28 -8 27 -13 -1 -5 17 -9 40 -8 23 0 45 -4 49 -10 5 -7 8 -6 8 3 0 11 3 11
15 1 12 -10 15 -10 15 1 0 12 2 12 9 1 11 -17 21 -17 32 0 7 10 9 10 9 -2 0
-11 3 -11 12 -2 8 8 15 9 25 1 10 -9 13 -8 13 2 0 11 2 11 10 -1 8 -12 10 -12
10 -1 0 11 3 11 15 1 12 -10 15 -10 15 0 0 7 6 10 13 7 8 -3 20 -1 28 3 8 5
19 4 28 -3 12 -9 13 -9 7 1 -7 12 0 15 36 15 10 0 15 4 12 8 -5 8 10 13 29 10
4 0 7 4 7 11 0 6 3 8 7 5 3 -4 12 -2 20 4 7 6 13 8 13 5 0 -4 11 5 25 20 14
15 25 23 25 18 1 -5 7 2 15 16 8 14 14 21 15 16 0 -12 40 34 40 47 0 5 7 7 14
4 10 -4 13 -1 9 9 -3 7 0 14 6 14 6 0 11 7 11 15 0 8 4 15 9 15 5 0 11 10 13
23 2 12 9 21 16 19 10 -2 10 2 2 18 -10 18 -7 24 12 21 4 0 5 8 3 19 -2 11 1
20 6 20 6 0 8 4 4 9 -3 5 -1 12 5 16 5 3 10 17 10 30 0 13 4 26 10 30 13 8 13
485 0 485 -6 0 -10 18 -10 40 0 22 -4 40 -10 40 -5 0 -10 9 -10 20 0 11 -6 20
-12 20 -9 0 -8 4 2 10 10 6 11 10 3 10 -7 0 -13 9 -13 20 0 11 -4 20 -10 20
-5 0 -10 6 -10 13 0 7 -9 23 -19 34 -11 12 -17 24 -14 27 4 3 1 6 -6 6 -7 0
-11 7 -8 14 4 11 1 13 -10 9 -11 -4 -14 -2 -9 5 4 7 2 12 -4 12 -6 0 -27 17
-45 38 -19 20 -35 33 -35 28 0 -5 -8 1 -19 12 -10 12 -21 19 -24 15 -4 -3 -9
2 -13 11 -3 9 -10 14 -14 11 -5 -3 -21 0 -37 6 -34 15 -51 19 -83 24 -14 1
-25 4 -25 5 0 1 -21 3 -47 5 -25 1 -51 6 -57 9 -5 4 -12 2 -16 -4 -3 -5 -11
-10 -16 -10 -6 0 -7 5 -4 10 7 11 2 13 -8 4z m88 -246 c11 -2 28 -12 38 -23
10 -11 15 -13 11 -5 -4 8 3 5 15 -7 11 -12 21 -27 21 -33 0 -5 5 -10 10 -10 6
0 10 -7 10 -15 0 -8 5 -15 12 -15 6 0 8 -3 5 -7 -4 -3 1 -11 10 -18 13 -9 13
-14 3 -20 -9 -6 -11 -4 -5 5 6 9 4 11 -4 5 -9 -5 -7 -13 9 -30 12 -13 17 -24
11 -26 -7 -3 -6 -13 3 -30 8 -16 10 -33 4 -48 -7 -19 -5 -22 7 -17 13 4 14 2
5 -14 -8 -15 -8 -20 2 -20 11 0 11 -2 0 -8 -9 -7 -10 -15 -3 -35 6 -15 7 -27
3 -27 -4 0 -6 -32 -4 -71 2 -56 0 -69 -10 -63 -10 6 -10 5 -1 -7 13 -16 14
-101 1 -93 -12 8 -5 -19 7 -28 6 -5 6 -8 -2 -8 -6 0 -10 -11 -8 -25 1 -14 -2
-25 -7 -25 -5 0 -6 -4 -3 -10 3 -5 2 -10 -4 -10 -5 0 -8 -11 -6 -25 1 -14 -2
-25 -7 -25 -5 0 -6 -4 -3 -10 3 -5 1 -10 -4 -10 -6 0 -11 -6 -11 -13 0 -20
-70 -81 -94 -82 -11 -1 -22 -7 -24 -14 -2 -6 -9 -8 -15 -4 -7 4 -26 6 -44 4
-18 -1 -33 2 -33 8 0 5 -9 8 -20 6 -12 -2 -20 2 -20 10 0 9 -6 12 -15 9 -10
-4 -15 0 -15 12 0 16 -2 17 -10 4 -8 -12 -10 -11 -10 8 0 12 -4 22 -10 22 -5
0 -10 7 -10 16 0 8 -4 12 -10 9 -6 -4 -10 5 -10 19 0 14 -6 26 -12 26 -9 0 -8
4 2 10 12 7 12 10 1 10 -7 0 -11 6 -7 15 3 8 0 15 -7 15 -8 0 -6 4 3 10 12 8
12 10 -5 10 -17 0 -17 2 -5 10 8 5 10 10 5 10 -6 0 -10 17 -10 38 1 20 -3 45
-7 55 -6 11 -5 17 4 18 7 0 4 4 -7 9 -11 5 -14 9 -7 9 6 1 12 8 12 17 0 9 -5
12 -12 8 -7 -4 -4 3 6 15 19 21 19 21 1 15 -14 -6 -16 -4 -9 7 13 21 14 39 1
39 -7 0 -6 5 3 10 13 9 13 11 0 20 -10 6 -11 10 -3 10 8 0 11 11 9 30 -2 17 0
30 5 30 5 0 6 7 3 15 -4 8 -11 12 -18 9 -6 -3 -4 0 5 8 10 8 15 26 13 46 -1
18 1 30 5 28 4 -3 8 1 8 9 0 8 -5 15 -11 15 -6 0 -5 4 2 8 11 8 23 46 25 80 0
6 4 12 8 12 4 0 11 10 15 22 8 27 59 80 68 71 3 -4 6 -1 6 5 0 7 9 12 20 12
11 0 20 4 20 8 0 8 49 8 105 0z"/>
<path d="M285 2040 c-4 -7 -16 -10 -26 -7 -10 3 -22 1 -25 -4 -4 -6 -10 -6
-17 -1 -12 10 -57 -1 -57 -13 0 -4 5 -3 11 0 13 9 8 -27 -6 -37 -6 -5 -5 -8 2
-8 7 0 10 -7 7 -15 -4 -9 0 -15 7 -15 9 0 7 -5 -5 -11 -15 -9 -16 -13 -5 -20
12 -8 12 -10 0 -18 -8 -5 -9 -11 -3 -15 5 -3 7 -17 4 -31 -3 -17 0 -25 9 -25
9 -1 8 -4 -4 -11 -17 -10 -17 -12 -2 -36 10 -14 12 -23 7 -19 -7 4 -11 -11
-10 -44 0 -31 4 -50 11 -50 8 0 7 -3 -1 -9 -9 -5 -12 -20 -9 -40 3 -20 1 -31
-6 -31 -8 0 -8 -3 -2 -8 13 -9 14 -65 0 -74 -6 -5 -6 -8 0 -8 6 0 9 -23 8 -55
-2 -38 1 -55 10 -55 6 0 4 -5 -7 -11 -15 -9 -16 -13 -5 -20 12 -8 12 -10 0
-18 -8 -5 -9 -11 -3 -15 5 -3 7 -17 4 -31 -3 -17 0 -25 9 -25 9 0 7 -5 -5 -11
-15 -9 -16 -13 -5 -21 11 -7 11 -11 1 -15 -6 -2 -9 -9 -6 -15 11 -17 10 -98
-1 -98 -7 0 -7 -3 0 -8 13 -9 14 -65 0 -74 -6 -5 -6 -8 2 -8 7 0 10 -7 7 -15
-4 -9 0 -15 7 -15 9 0 7 -5 -5 -11 -15 -9 -16 -13 -5 -20 12 -8 12 -10 0 -18
-8 -5 -9 -11 -3 -15 5 -3 7 -17 4 -31 -3 -17 0 -25 9 -25 9 -1 8 -4 -4 -11
-17 -10 -17 -12 -2 -36 10 -14 12 -22 6 -19 -8 5 -10 -7 -9 -40 l3 -48 155 -1
c174 -1 201 4 193 34 -3 12 -10 18 -17 14 -6 -3 -4 2 4 13 13 16 18 63 10 84
-7 19 -5 50 4 50 6 0 4 5 -4 10 -11 7 -11 10 -2 10 9 0 10 5 2 19 -13 26 -13
34 3 24 6 -4 4 6 -7 21 -10 16 -13 26 -8 22 6 -3 13 -2 17 4 3 5 1 10 -6 10
-9 0 -9 3 0 14 9 11 9 15 0 18 -9 3 -9 9 0 26 6 12 8 22 3 22 -12 0 -10 39 3
43 5 2 67 3 137 3 69 -1 124 2 122 6 -2 4 0 9 5 12 5 4 12 2 16 -4 4 -6 12 -7
18 -3 11 7 20 9 68 12 11 0 18 4 16 9 -3 4 6 8 19 9 46 4 54 6 54 15 0 5 4 7
9 3 6 -3 14 2 19 11 5 9 11 15 13 13 9 -5 49 13 49 22 0 6 4 8 9 5 5 -3 12 1
15 10 3 9 11 12 18 8 8 -5 9 -2 5 9 -4 11 -1 17 8 17 8 0 22 13 31 29 10 17
22 27 28 24 6 -3 8 -3 4 2 -4 4 -2 17 4 29 7 11 11 24 10 29 -1 4 3 7 10 7 6
0 8 3 5 6 -3 4 -2 15 3 25 7 12 6 19 -3 22 -9 4 -9 6 1 6 7 1 10 6 7 11 -3 6
-1 10 5 10 6 0 9 4 5 9 -3 5 -1 13 5 16 8 5 7 11 -1 21 -9 11 -8 14 2 14 9 0
10 3 3 8 -13 9 -13 94 1 104 6 5 6 8 -2 8 -10 0 -29 55 -25 72 1 4 -9 24 -23
44 -14 20 -22 41 -18 47 3 5 2 7 -4 4 -6 -4 -15 4 -21 17 -11 24 -91 86 -111
86 -6 0 -11 5 -11 12 0 6 -3 8 -6 5 -4 -4 -19 0 -33 8 -14 7 -39 17 -56 21
-16 4 -37 9 -45 11 -8 3 -25 4 -37 4 -13 0 -23 3 -23 8 0 4 -23 8 -50 7 -28
-1 -50 2 -50 6 0 4 -10 4 -22 0 -13 -5 -36 -5 -53 -2 -16 3 -40 3 -52 -1 -13
-5 -25 -4 -28 2 -4 5 -10 7 -15 4 -5 -3 -12 -1 -15 5 -5 8 -11 8 -21 0 -7 -7
-19 -10 -26 -7 -7 2 -25 0 -41 -4 -16 -5 -25 -4 -22 2 4 5 5 9 3 9 -2 0 -18
-4 -36 -9 -18 -6 -30 -6 -27 -2 2 5 -10 7 -28 6 -17 -2 -37 1 -44 7 -7 6 -14
5 -18 -2z m400 -240 c0 -2 54 -10 78 -11 9 0 17 -4 17 -10 0 -5 6 -9 13 -9 33
-1 80 -65 82 -112 1 -14 7 -34 14 -42 8 -9 9 -16 4 -16 -6 0 -9 -11 -8 -25 2
-14 -1 -28 -6 -31 -6 -4 -6 -11 1 -19 8 -10 6 -17 -9 -27 -12 -8 -18 -18 -14
-21 3 -4 1 -7 -6 -7 -7 0 -10 -3 -8 -7 2 -5 -4 -16 -15 -25 -10 -10 -18 -15
-18 -10 0 4 -6 0 -13 -9 -13 -17 -17 -19 -43 -19 -8 0 -13 -4 -10 -9 4 -5 -10
-8 -31 -6 -21 1 -42 0 -48 -3 -18 -11 -55 -10 -55 1 0 7 -4 6 -10 -3 -9 -13
-10 -13 -10 0 0 13 -1 13 -10 0 -6 -9 -10 -11 -10 -3 0 7 -6 10 -14 7 -8 -3
-23 -1 -33 5 -10 6 -12 11 -5 11 9 0 10 5 2 19 -13 26 -13 34 3 24 6 -4 4 6
-7 21 -10 16 -13 26 -8 22 6 -3 13 -2 17 4 3 5 1 10 -6 10 -9 0 -9 3 0 14 9
11 9 15 0 18 -9 3 -9 9 0 26 9 17 9 22 0 22 -9 0 -9 3 0 14 9 11 9 15 -1 18
-10 4 -10 8 1 21 13 16 8 22 -14 17 -5 -1 -2 7 7 17 12 13 14 23 7 36 -6 9 -7
23 -3 29 12 18 12 48 1 55 -20 12 15 19 90 17 43 -1 78 -3 78 -4z"/>
<path d="M1196 1807 c3 -10 9 -15 12 -12 3 3 0 11 -7 18 -10 9 -11 8 -5 -6z"/>
</g>
</svg>
